# xmcd
#
# Track frame offsets:
#	182
#	16100
#	31245
#	49627
#	64315
#	83307
#	97782
#	111102
#	124947
#	143610
#	154530
#	173757
#	187577
#	210460
#	225855
#	239662
#	251612
#	269472
#
# Disc length: 3810 seconds
#
# Revision: 1
# Processed by: cddbd v1.4PL0 Copyright (c) Steve Scherf et al.
# Submitted via: EasyCDDAExtractor 5.0.6
#
DISCID=d30ee012
DTITLE=Big Joe Williams - Warner Blues
DYEAR=1998
DGENRE=Blues
TTITLE0=meet me at the bottom
TTITLE1=baby, i ain't gonna let you go
TTITLE2=feel so good
TTITLE3=pony blues
TTITLE4=sugar babe
TTITLE5=trouble gonna take me to my grave
TTITLE6=walking blues
TTITLE7=tell me mama
TTITLE8=black gal
TTITLE9=bottle up and go
TTITLE10=highway
TTITLE11=bird's nest bound
TTITLE12=levee camp blues
TTITLE13=coal and iceman blues
TTITLE14=i'm tired, woman
TTITLE15=rollin' and tumblin'
TTITLE16=burned child is scared of fire
TTITLE17=prowling ground hog
EXTD=warner blues\n3984-25578-2\n639842557825\n
EXTT0=
EXTT1=
EXTT2=
EXTT3=
EXTT4=
EXTT5=
EXTT6=
EXTT7=
EXTT8=
EXTT9=
EXTT10=
EXTT11=
EXTT12=
EXTT13=
EXTT14=
EXTT15=
EXTT16=
EXTT17=
PLAYORDER=
